<svg xmlns="http://www.w3.org/2000/svg" xmlns:xlink="http://www.w3.org/1999/xlink" width="100" height="100" viewBox="0 0 100 100"><circle stroke="none" fill="#F3F3F3" r="48%" cx="50%" cy="50%"></circle><g transform="translate(50 50) scale(0.69 0.69) rotate(0) translate(-50 -50)" style="fill:#000000"><svg fill="#000000" xmlns="http://www.w3.org/2000/svg" viewBox="0 0 17.49 14.35" x="0px" y="0px"><title>Expand Screen</title><g data-name="UI Elements"><path d="M12.67,3H9.24c-.14,0-.18.08-.08.18l1,1a.26.26,0,0,1,0,.36L8.52,6.25a.25.25,0,0,0,0,.36l.83.83a.26.26,0,0,0,.36,0l1.66-1.66a.26.26,0,0,1,.36,0l1,1c.1.1.18.06.18-.08V3.29A.26.26,0,0,0,12.67,3Z"></path><path d="M2.37,4.35A.39.39,0,0,0,2.75,4V3A.39.39,0,0,0,2,3V4A.39.39,0,0,0,2.37,4.35Z"></path><path d="M7.6.78h.92a.39.39,0,1,0,0-.78H7.6a.39.39,0,1,0,0,.78Z"></path><path d="M2.37,1.45a.39.39,0,0,0,.39-.39V.78a.39.39,0,0,0,0-.78H2.59A.61.61,0,0,0,2,.61v.45A.39.39,0,0,0,2.37,1.45Z"></path><path d="M10.5.78h.92a.39.39,0,1,0,0-.78H10.5a.39.39,0,1,0,0,.78Z"></path><path d="M4.69.78h.92a.39.39,0,1,0,0-.78H4.69a.39.39,0,1,0,0,.78Z"></path><path d="M17.1,1a.39.39,0,0,0,.39-.4A.61.61,0,0,0,16.87,0h-.57a.39.39,0,1,0,0,.78h.43A.39.39,0,0,0,17.1,1Z"></path><path d="M17.1,8a.39.39,0,0,0-.39.39v.92a.39.39,0,0,0,.78,0V8.41A.39.39,0,0,0,17.1,8Z"></path><path d="M17.1,5.12a.39.39,0,0,0-.39.39v.92a.39.39,0,1,0,.78,0V5.51A.39.39,0,0,0,17.1,5.12Z"></path><path d="M17.1,2.22a.39.39,0,0,0-.39.39v.91a.39.39,0,1,0,.78,0V2.61A.39.39,0,0,0,17.1,2.22Z"></path><path d="M14.71.39A.39.39,0,0,0,14.32,0H13.4a.39.39,0,1,0,0,.78h.92A.39.39,0,0,0,14.71.39Z"></path><path d="M11.86,11.59h-.92a.39.39,0,1,0,0,.78h.92a.39.39,0,1,0,0-.78Z"></path><path d="M14.77,11.59h-.92a.39.39,0,1,0,0,.78h.92a.39.39,0,1,0,0-.78Z"></path><path d="M17.1,10.93a.39.39,0,0,0-.39.39v.28a.39.39,0,0,0,0,.78h.12a.61.61,0,0,0,.61-.61v-.44A.39.39,0,0,0,17.1,10.93Z"></path><path d="M9,11.59H8.42V8.24a.73.73,0,0,0-.73-.73h-7A.73.73,0,0,0,0,8.24v5.38a.73.73,0,0,0,.73.73h7a.73.73,0,0,0,.73-.73V12.37H9a.39.39,0,1,0,0-.78ZM7.41,13.34H1V8.52H7.41Z"></path><path d="M2.37,7.26a.39.39,0,0,0,.39-.39V5.95a.39.39,0,0,0-.78,0v.92A.39.39,0,0,0,2.37,7.26Z"></path></g></svg></g></svg>