<svg version="1.0" xmlns="http://www.w3.org/2000/svg" width="242.667" height="290.667" viewBox="0 0 182 218"><path d="M0 109v109h182v-26.5c0-14.6-.2-26.5-.4-26.5-1.3 0-6.1 10.2-6.7 14.4-.5 2.7-1 5-1.2 5.3-.3.2-3.9.3-8.1.1l-7.6-.3 5.6-4.5c3.2-2.5 8.6-8.1 12.1-12.5l6.3-7.9V49.4l-6.3-7.9c-7-8.9-15.8-16.4-25.7-21.9l-6.5-3.6H182V0H0v109zm38-89.5c-3.6 1.9-10 6.4-14.2 10L16 36V16h14.3l14.2.1-6.5 3.4zm78-.5c22.7 5.5 43 21.1 53.3 40.9 12.5 23.9 12.5 57.3 0 81.2-10.9 21-31.3 35.9-56.6 41.5-8.9 2-32.7 2.3-41.2.5-27.8-5.8-48.3-20.8-59.9-44-5-9.9-7.6-20.4-8.3-33.6-.6-13.3.8-24 4.6-35.2 4.2-12.1 8.4-18.6 19.1-29.4 8.4-8.5 10.7-10.2 20-14.7 16.2-8 27.5-10.3 47.5-9.7 8.5.3 15.9 1.1 21.5 2.5zM29.9 184.6c.2.2-2.8.4-6.7.4H16v-12.1l6.8 5.7c3.7 3.1 6.9 5.9 7.1 6z"/><path d="M68.3 47.7c-2.6.5-7.5 5.9-10.2 11.1-3.3 6.5-7 19.9-8.2 29.4-4.3 35.5 15.4 60.7 50.4 64.7 4.8.6 9.4.8 10.2.5 1-.4-.5-2.8-5.1-8.2-9-10.8-18.9-30.5-25.3-50.9-7-22.2-8.1-26.2-7.2-26.7.4-.3 1.4 1.4 2 3.7 2.2 7.2 12 30.9 15.8 37.7 1.9 3.6 6.5 10.8 10.3 16 3.7 5.2 8.7 13.5 11.2 18.4l4.5 8.9 2.5-3.4c3.7-4.9 6.2-10.3 9.3-19.9 2.2-6.9 2.8-11 3.2-21.5.4-8.1.1-15.1-.6-18.7-3.9-18.5-19.8-34.2-39.6-39.1-6.5-1.6-19.6-2.8-23.2-2zm29.6 22.7c13 6.6 22.9 20.9 23.8 34.3.5 6.8-1.1 18.3-2.6 18.3-1 0-7.6-9.3-12.1-16.9-3.3-5.7-14.4-31-15.6-35.5-.8-3.3.3-3.3 6.5-.2zm-27 36.6c1.8 5.8 4.4 13.1 5.6 16.2 2.7 6.5 2 7.3-2.1 2.5-5-6-7.7-13.4-8.2-22.7-.3-5.4-.1-8.1.5-7.5.6.5 2.5 5.7 4.2 11.5z"/></svg>